<svg version="1.2" xmlns="http://www.w3.org/2000/svg" viewBox="0 0 1200 1200" width="1200" height="1200"><style>.a{fill:#fff}.b{fill:none;stroke:#00c1ff;stroke-miterlimit:100;stroke-width:100}.c{fill:#4f80ff}</style><path fill-rule="evenodd" class="a" d="m600 1200c-331.8 0-600-268.2-600-600 0-331.8 268.2-600 600-600 331.8 0 600 268.2 600 600 0 331.8-268.2 600-600 600z"/><path fill-rule="evenodd" class="b" d="m600 975c-207.4 0-375-167.6-375-375 0-207.4 167.6-375 375-375 207.4 0 375 167.6 375 375 0 207.4-167.6 375-375 375z"/><path class="a" d="m490 446.7h218.8v-361.8h-218.8z"/><path class="c" d="m515.8 349h53.7v-58.5l24.3-33 52.8 91.5h58.5l-80.1-133.8 67.5-89.7h-58.8l-63.3 88.5h-0.9v-88.5h-53.7z"/><path class="a" d="m706.2 492.6l38.5 95.1 335.4-135.7-38.5-95.1z"/><path class="c" d="m819.2 522.6c4.5 11.1 9.7 18.4 14.1 22.8l34-20.6c-1.6-2.5-2.1-3.6-2.8-5.3-1.5-3.9-0.4-9.9 10.2-14.2l172.4-69.7-20-49.5-170.8 69.1c-33.1 13.4-50.8 33.5-37.1 67.4z"/><path class="a" d="m775 675.5l-126.1 158 283 225.8 126.1-158z"/><path class="c" d="m802.5 791.1c-14.4 18-15.9 37.2-11.6 58.7l-0.7 0.9-20.8-11.5-27.1 34 133.5 106.5 33.3-41.7-87.5-69.9c-4.2-14.9-3.3-23.7 4.2-33.1 8.4-10.6 17.7-11.2 36 3.4l77.4 61.8 33.4-41.8-82.6-65.9c-33.3-26.5-64.1-30.8-87.5-1.4z"/><path class="a" d="m525.1 778.1l-70.7-69.5-253.6 257.9 70.7 69.6z"/><path class="c" d="m441.2 832.6l-38-37.4-119.7 121.7 38.1 37.4zm-155.3 119.9c-12.7-12.4-28.8-13.1-40.6-1.1-11.5 11.7-10.5 27.8 2.1 40.2 12.8 12.7 28.7 13.2 40.3 1.4 11.8-12 11-27.9-1.8-40.5z"/><path class="a" d="m121.3 329.8l-61.1 145.3 333.5 140.4 61.2-145.3z"/><path class="c" d="m179.3 433.1c-18 42.8-5.1 74.9 23.9 87.2 28.5 11.9 49-5.1 64.8-21.6 12.6-13.9 21.9-25.9 31.3-22 7.5 3.2 9.2 10 4.4 21.4-4.3 10.2-14.2 19.1-27 27l20.1 34.2c15.8-8.9 33.5-23 43.8-47.6 15.5-36.8 5.4-69.4-24.2-81.8-26.2-11.1-47.9 4.9-63.3 20.5-13.1 13.4-23.9 26.7-33.3 22.8-7.8-3.3-10.2-10.8-4.7-23.8 5.2-12.4 16.5-23 33.4-32.8l-21.5-34.8c-20.1 10.4-39.1 30.8-47.7 51.3z"/></svg>